<svg xmlns="http://www.w3.org/2000/svg" xmlns:xlink="http://www.w3.org/1999/xlink" width="146" height="153" viewBox="0 0 146 153">
  <defs>
    <clipPath id="clip-Artboard_4">
      <rect width="146" height="153"/>
    </clipPath>
  </defs>
  <g id="Artboard_4" data-name="Artboard – 4" clip-path="url(#clip-Artboard_4)">
    <g id="Group_2379" data-name="Group 2379" transform="translate(-1176 -244)">
      <path id="Path_125" data-name="Path 125" d="M1199.143,250.1a2.054,2.054,0,0,0,1.9-1.272c-1.176.126-2.341.276-3.5.458A2.023,2.023,0,0,0,1199.143,250.1Z" transform="translate(40.861 0.29)" fill="#eaeaea"/>
      <path id="Path_126" data-name="Path 126" d="M1202.314,250.386a2.034,2.034,0,0,0,1.976-1.637c-.677-.02-1.355-.05-2.036-.05-.641,0-1.275.03-1.913.046A2.03,2.03,0,0,0,1202.314,250.386Z" transform="translate(47.356 0)" fill="#eaeaea"/>
      <path id="Path_127" data-name="Path 127" d="M1191.93,251.71q-1.47.872-2.9,1.813a2.032,2.032,0,0,0,2.9-1.813Z" transform="translate(21.116 6.988)" fill="#eaeaea"/>
      <path id="Path_128" data-name="Path 128" d="M1193.64,251.074a2.059,2.059,0,1,0,2.059,2.059A2.058,2.058,0,0,0,1193.64,251.074Z" transform="translate(27.027 5.512)" fill="#eaeaea"/>
      <path id="Path_129" data-name="Path 129" d="M1196.552,251.074a2.059,2.059,0,1,0,2.059,2.059A2.061,2.061,0,0,0,1196.552,251.074Z" transform="translate(33.782 5.512)" fill="#eaeaea"/>
      <path id="Path_130" data-name="Path 130" d="M1199.463,251.074a2.059,2.059,0,1,0,2.059,2.059A2.058,2.058,0,0,0,1199.463,251.074Z" transform="translate(40.54 5.512)" fill="#eaeaea"/>
      <path id="Path_131" data-name="Path 131" d="M1202.374,251.074a2.059,2.059,0,1,0,2.059,2.059A2.061,2.061,0,0,0,1202.374,251.074Z" transform="translate(47.296 5.512)" fill="#eaeaea"/>
      <path id="Path_132" data-name="Path 132" d="M1187.778,258.243a2.061,2.061,0,0,0,2.059-2.059,2.031,2.031,0,0,0-1.657-1.979q-1.231,1.1-2.4,2.255A2.034,2.034,0,0,0,1187.778,258.243Z" transform="translate(13.553 12.778)" fill="#eaeaea"/>
      <path id="Path_133" data-name="Path 133" d="M1190.728,254.181a2.059,2.059,0,1,0,2.059,2.059A2.059,2.059,0,0,0,1190.728,254.181Z" transform="translate(20.269 12.722)" fill="#eaeaea"/>
      <path id="Path_134" data-name="Path 134" d="M1193.64,254.181a2.059,2.059,0,1,0,2.059,2.059A2.056,2.056,0,0,0,1193.64,254.181Z" transform="translate(27.027 12.722)" fill="#eaeaea"/>
      <path id="Path_135" data-name="Path 135" d="M1196.552,254.181a2.059,2.059,0,1,0,2.059,2.059A2.059,2.059,0,0,0,1196.552,254.181Z" transform="translate(33.782 12.722)" fill="#eaeaea"/>
      <path id="Path_136" data-name="Path 136" d="M1199.463,254.181a2.059,2.059,0,1,0,2.059,2.059A2.056,2.056,0,0,0,1199.463,254.181Z" transform="translate(40.54 12.722)" fill="#eaeaea"/>
      <path id="Path_137" data-name="Path 137" d="M1202.374,254.181a2.059,2.059,0,1,0,2.059,2.059A2.059,2.059,0,0,0,1202.374,254.181Z" transform="translate(47.296 12.722)" fill="#eaeaea"/>
      <path id="Path_138" data-name="Path 138" d="M1184.631,261.326a2.057,2.057,0,0,0,2.059-2.059,2.028,2.028,0,0,0-1.515-1.946c-.76,1.009-1.5,2.039-2.211,3.088A2.021,2.021,0,0,0,1184.631,261.326Z" transform="translate(7.029 20.009)" fill="#eaeaea"/>
      <path id="Path_139" data-name="Path 139" d="M1187.817,257.288a2.057,2.057,0,1,0,2.059,2.056A2.056,2.056,0,0,0,1187.817,257.288Z" transform="translate(13.513 19.933)" fill="#eaeaea"/>
      <path id="Path_140" data-name="Path 140" d="M1190.728,257.288a2.057,2.057,0,1,0,2.059,2.056A2.058,2.058,0,0,0,1190.728,257.288Z" transform="translate(20.269 19.933)" fill="#eaeaea"/>
      <path id="Path_141" data-name="Path 141" d="M1193.64,257.288a2.057,2.057,0,1,0,2.059,2.056A2.056,2.056,0,0,0,1193.64,257.288Z" transform="translate(27.027 19.933)" fill="#eaeaea"/>
      <path id="Path_142" data-name="Path 142" d="M1196.552,257.288a2.057,2.057,0,1,0,2.059,2.056A2.058,2.058,0,0,0,1196.552,257.288Z" transform="translate(33.782 19.933)" fill="#eaeaea"/>
      <path id="Path_143" data-name="Path 143" d="M1199.463,257.288a2.057,2.057,0,1,0,2.059,2.056A2.056,2.056,0,0,0,1199.463,257.288Z" transform="translate(40.54 19.933)" fill="#eaeaea"/>
      <path id="Path_144" data-name="Path 144" d="M1202.374,257.288a2.057,2.057,0,1,0,2.059,2.056A2.058,2.058,0,0,0,1202.374,257.288Z" transform="translate(47.296 19.933)" fill="#eaeaea"/>
      <path id="Path_145" data-name="Path 145" d="M1184.905,260.394a2.059,2.059,0,1,0,2.059,2.059A2.061,2.061,0,0,0,1184.905,260.394Z" transform="translate(6.755 27.141)" fill="#eaeaea"/>
      <path id="Path_146" data-name="Path 146" d="M1187.817,260.394a2.059,2.059,0,1,0,2.059,2.059A2.058,2.058,0,0,0,1187.817,260.394Z" transform="translate(13.513 27.141)" fill="#eaeaea"/>
      <path id="Path_147" data-name="Path 147" d="M1190.728,260.394a2.059,2.059,0,1,0,2.059,2.059A2.061,2.061,0,0,0,1190.728,260.394Z" transform="translate(20.269 27.141)" fill="#eaeaea"/>
      <path id="Path_148" data-name="Path 148" d="M1193.64,260.394a2.059,2.059,0,1,0,2.059,2.059A2.058,2.058,0,0,0,1193.64,260.394Z" transform="translate(27.027 27.141)" fill="#eaeaea"/>
      <path id="Path_149" data-name="Path 149" d="M1196.552,260.394a2.059,2.059,0,1,0,2.059,2.059A2.061,2.061,0,0,0,1196.552,260.394Z" transform="translate(33.782 27.141)" fill="#eaeaea"/>
      <path id="Path_150" data-name="Path 150" d="M1199.463,260.394a2.059,2.059,0,1,0,2.059,2.059A2.058,2.058,0,0,0,1199.463,260.394Z" transform="translate(40.54 27.141)" fill="#eaeaea"/>
      <path id="Path_151" data-name="Path 151" d="M1202.374,260.394a2.059,2.059,0,1,0,2.059,2.059A2.061,2.061,0,0,0,1202.374,260.394Z" transform="translate(47.296 27.141)" fill="#eaeaea"/>
      <path id="Path_152" data-name="Path 152" d="M1181.662,267.619a2.061,2.061,0,1,0-.608-3.995q-.523,1.584-.976,3.2A2.024,2.024,0,0,0,1181.662,267.619Z" transform="translate(0.332 34.351)" fill="#eaeaea"/>
      <path id="Path_153" data-name="Path 153" d="M1184.905,263.5a2.059,2.059,0,1,0,2.059,2.059A2.061,2.061,0,0,0,1184.905,263.5Z" transform="translate(6.755 34.351)" fill="#eaeaea"/>
      <path id="Path_154" data-name="Path 154" d="M1187.817,263.5a2.059,2.059,0,1,0,2.059,2.059A2.058,2.058,0,0,0,1187.817,263.5Z" transform="translate(13.513 34.351)" fill="#eaeaea"/>
      <path id="Path_155" data-name="Path 155" d="M1190.728,263.5a2.059,2.059,0,1,0,2.059,2.059A2.061,2.061,0,0,0,1190.728,263.5Z" transform="translate(20.269 34.351)" fill="#eaeaea"/>
      <path id="Path_156" data-name="Path 156" d="M1193.64,263.5a2.059,2.059,0,1,0,2.059,2.059A2.058,2.058,0,0,0,1193.64,263.5Z" transform="translate(27.027 34.351)" fill="#eaeaea"/>
      <path id="Path_157" data-name="Path 157" d="M1196.552,263.5a2.059,2.059,0,1,0,2.059,2.059A2.061,2.061,0,0,0,1196.552,263.5Z" transform="translate(33.782 34.351)" fill="#eaeaea"/>
      <path id="Path_158" data-name="Path 158" d="M1199.463,263.5a2.059,2.059,0,1,0,2.059,2.059A2.058,2.058,0,0,0,1199.463,263.5Z" transform="translate(40.54 34.351)" fill="#eaeaea"/>
      <path id="Path_159" data-name="Path 159" d="M1202.374,263.5a2.059,2.059,0,1,0,2.059,2.059A2.061,2.061,0,0,0,1202.374,263.5Z" transform="translate(47.296 34.351)" fill="#eaeaea"/>
      <path id="Path_160" data-name="Path 160" d="M1181.994,266.608a2.059,2.059,0,1,0,2.059,2.059A2.056,2.056,0,0,0,1181.994,266.608Z" transform="translate(0 41.562)" fill="#eaeaea"/>
      <path id="Path_161" data-name="Path 161" d="M1184.905,266.608a2.059,2.059,0,1,0,2.059,2.059A2.059,2.059,0,0,0,1184.905,266.608Z" transform="translate(6.755 41.562)" fill="#eaeaea"/>
      <path id="Path_162" data-name="Path 162" d="M1187.817,266.608a2.059,2.059,0,1,0,2.059,2.059A2.056,2.056,0,0,0,1187.817,266.608Z" transform="translate(13.513 41.562)" fill="#eaeaea"/>
      <path id="Path_163" data-name="Path 163" d="M1190.728,266.608a2.059,2.059,0,1,0,2.059,2.059A2.059,2.059,0,0,0,1190.728,266.608Z" transform="translate(20.269 41.562)" fill="#eaeaea"/>
      <path id="Path_164" data-name="Path 164" d="M1193.64,266.608a2.059,2.059,0,1,0,2.059,2.059A2.056,2.056,0,0,0,1193.64,266.608Z" transform="translate(27.027 41.562)" fill="#eaeaea"/>
      <path id="Path_165" data-name="Path 165" d="M1196.552,266.608a2.059,2.059,0,1,0,2.059,2.059A2.059,2.059,0,0,0,1196.552,266.608Z" transform="translate(33.782 41.562)" fill="#eaeaea"/>
      <path id="Path_166" data-name="Path 166" d="M1199.463,266.608a2.059,2.059,0,1,0,2.059,2.059A2.056,2.056,0,0,0,1199.463,266.608Z" transform="translate(40.54 41.562)" fill="#eaeaea"/>
      <path id="Path_167" data-name="Path 167" d="M1202.374,266.608a2.059,2.059,0,1,0,2.059,2.059A2.059,2.059,0,0,0,1202.374,266.608Z" transform="translate(47.296 41.562)" fill="#eaeaea"/>
      <path id="Path_168" data-name="Path 168" d="M1181.994,269.715a2.057,2.057,0,1,0,2.059,2.059A2.056,2.056,0,0,0,1181.994,269.715Z" transform="translate(0 48.772)" fill="#eaeaea"/>
      <path id="Path_169" data-name="Path 169" d="M1184.905,269.715a2.057,2.057,0,1,0,2.059,2.059A2.059,2.059,0,0,0,1184.905,269.715Z" transform="translate(6.755 48.772)" fill="#eaeaea"/>
      <path id="Path_170" data-name="Path 170" d="M1187.817,269.715a2.057,2.057,0,1,0,2.059,2.059A2.056,2.056,0,0,0,1187.817,269.715Z" transform="translate(13.513 48.772)" fill="#eaeaea"/>
      <path id="Path_171" data-name="Path 171" d="M1190.728,269.715a2.057,2.057,0,1,0,2.059,2.059A2.059,2.059,0,0,0,1190.728,269.715Z" transform="translate(20.269 48.772)" fill="#eaeaea"/>
      <path id="Path_172" data-name="Path 172" d="M1193.64,269.715a2.057,2.057,0,1,0,2.059,2.059A2.056,2.056,0,0,0,1193.64,269.715Z" transform="translate(27.027 48.772)" fill="#eaeaea"/>
      <path id="Path_173" data-name="Path 173" d="M1196.552,269.715a2.057,2.057,0,1,0,2.059,2.059A2.059,2.059,0,0,0,1196.552,269.715Z" transform="translate(33.782 48.772)" fill="#eaeaea"/>
      <path id="Path_174" data-name="Path 174" d="M1199.463,269.715a2.057,2.057,0,1,0,2.059,2.059A2.056,2.056,0,0,0,1199.463,269.715Z" transform="translate(40.54 48.772)" fill="#eaeaea"/>
      <path id="Path_175" data-name="Path 175" d="M1202.374,269.715a2.057,2.057,0,1,0,2.059,2.059A2.059,2.059,0,0,0,1202.374,269.715Z" transform="translate(47.296 48.772)" fill="#eaeaea"/>
      <path id="Path_176" data-name="Path 176" d="M1205.138,250.1a2.012,2.012,0,0,0,1.6-.814c-1.156-.183-2.321-.332-3.5-.458A2.055,2.055,0,0,0,1205.138,250.1Z" transform="translate(54.08 0.29)" fill="#eaeaea"/>
      <path id="Path_177" data-name="Path 177" d="M1205.249,251.074a2.059,2.059,0,1,0,2.059,2.059A2.061,2.061,0,0,0,1205.249,251.074Z" transform="translate(53.968 5.512)" fill="#eaeaea"/>
      <path id="Path_178" data-name="Path 178" d="M1208.161,251.074a2.059,2.059,0,1,0,2.059,2.059A2.058,2.058,0,0,0,1208.161,251.074Z" transform="translate(60.726 5.512)" fill="#eaeaea"/>
      <path id="Path_179" data-name="Path 179" d="M1211.072,251.074a2.059,2.059,0,1,0,2.059,2.059A2.061,2.061,0,0,0,1211.072,251.074Z" transform="translate(67.481 5.512)" fill="#eaeaea"/>
      <path id="Path_180" data-name="Path 180" d="M1213.977,253.716a2.069,2.069,0,0,0,.847-.193q-1.425-.941-2.9-1.813A2.052,2.052,0,0,0,1213.977,253.716Z" transform="translate(74.247 6.988)" fill="#eaeaea"/>
      <path id="Path_181" data-name="Path 181" d="M1205.249,254.181a2.059,2.059,0,1,0,2.059,2.059A2.059,2.059,0,0,0,1205.249,254.181Z" transform="translate(53.968 12.722)" fill="#eaeaea"/>
      <path id="Path_182" data-name="Path 182" d="M1208.161,254.181a2.059,2.059,0,1,0,2.059,2.059A2.056,2.056,0,0,0,1208.161,254.181Z" transform="translate(60.726 12.722)" fill="#eaeaea"/>
      <path id="Path_183" data-name="Path 183" d="M1211.072,254.181a2.059,2.059,0,1,0,2.059,2.059A2.059,2.059,0,0,0,1211.072,254.181Z" transform="translate(67.481 12.722)" fill="#eaeaea"/>
      <path id="Path_184" data-name="Path 184" d="M1213.984,254.181a2.059,2.059,0,1,0,2.059,2.059A2.056,2.056,0,0,0,1213.984,254.181Z" transform="translate(74.24 12.722)" fill="#eaeaea"/>
      <path id="Path_185" data-name="Path 185" d="M1214.836,256.184a2.061,2.061,0,0,0,2.059,2.059,2.034,2.034,0,0,0,2-1.783q-1.175-1.156-2.4-2.255A2.031,2.031,0,0,0,1214.836,256.184Z" transform="translate(80.995 12.778)" fill="#eaeaea"/>
      <path id="Path_186" data-name="Path 186" d="M1205.249,257.288a2.057,2.057,0,1,0,2.059,2.056A2.058,2.058,0,0,0,1205.249,257.288Z" transform="translate(53.968 19.933)" fill="#eaeaea"/>
      <path id="Path_187" data-name="Path 187" d="M1208.161,257.288a2.057,2.057,0,1,0,2.059,2.056A2.056,2.056,0,0,0,1208.161,257.288Z" transform="translate(60.726 19.933)" fill="#eaeaea"/>
      <path id="Path_188" data-name="Path 188" d="M1211.072,257.288a2.057,2.057,0,1,0,2.059,2.056A2.058,2.058,0,0,0,1211.072,257.288Z" transform="translate(67.481 19.933)" fill="#eaeaea"/>
      <path id="Path_189" data-name="Path 189" d="M1213.984,257.288a2.057,2.057,0,1,0,2.059,2.056A2.056,2.056,0,0,0,1213.984,257.288Z" transform="translate(74.24 19.933)" fill="#eaeaea"/>
      <path id="Path_190" data-name="Path 190" d="M1216.9,257.288a2.057,2.057,0,1,0,2.059,2.056A2.058,2.058,0,0,0,1216.9,257.288Z" transform="translate(80.995 19.933)" fill="#eaeaea"/>
      <path id="Path_191" data-name="Path 191" d="M1217.748,259.267a2.056,2.056,0,0,0,2.059,2.059,2.02,2.02,0,0,0,1.667-.917q-1.066-1.574-2.215-3.088A2.028,2.028,0,0,0,1217.748,259.267Z" transform="translate(87.753 20.009)" fill="#eaeaea"/>
      <path id="Path_192" data-name="Path 192" d="M1205.249,260.394a2.059,2.059,0,1,0,2.059,2.059A2.061,2.061,0,0,0,1205.249,260.394Z" transform="translate(53.968 27.141)" fill="#eaeaea"/>
      <path id="Path_193" data-name="Path 193" d="M1208.161,260.394a2.059,2.059,0,1,0,2.059,2.059A2.058,2.058,0,0,0,1208.161,260.394Z" transform="translate(60.726 27.141)" fill="#eaeaea"/>
      <path id="Path_194" data-name="Path 194" d="M1211.072,260.394a2.059,2.059,0,1,0,2.059,2.059A2.061,2.061,0,0,0,1211.072,260.394Z" transform="translate(67.481 27.141)" fill="#eaeaea"/>
      <path id="Path_195" data-name="Path 195" d="M1213.984,260.394a2.059,2.059,0,1,0,2.059,2.059A2.058,2.058,0,0,0,1213.984,260.394Z" transform="translate(74.24 27.141)" fill="#eaeaea"/>
      <path id="Path_196" data-name="Path 196" d="M1216.9,260.394a2.059,2.059,0,1,0,2.059,2.059A2.061,2.061,0,0,0,1216.9,260.394Z" transform="translate(80.995 27.141)" fill="#eaeaea"/>
      <path id="Path_197" data-name="Path 197" d="M1219.807,260.394a2.059,2.059,0,1,0,2.059,2.059A2.058,2.058,0,0,0,1219.807,260.394Z" transform="translate(87.753 27.141)" fill="#eaeaea"/>
      <path id="Path_198" data-name="Path 198" d="M1205.249,263.5a2.059,2.059,0,1,0,2.059,2.059A2.061,2.061,0,0,0,1205.249,263.5Z" transform="translate(53.968 34.351)" fill="#eaeaea"/>
      <path id="Path_199" data-name="Path 199" d="M1208.161,263.5a2.059,2.059,0,1,0,2.059,2.059A2.058,2.058,0,0,0,1208.161,263.5Z" transform="translate(60.726 34.351)" fill="#eaeaea"/>
      <path id="Path_200" data-name="Path 200" d="M1211.072,263.5a2.059,2.059,0,1,0,2.059,2.059A2.061,2.061,0,0,0,1211.072,263.5Z" transform="translate(67.481 34.351)" fill="#eaeaea"/>
      <path id="Path_201" data-name="Path 201" d="M1213.984,263.5a2.059,2.059,0,1,0,2.059,2.059A2.058,2.058,0,0,0,1213.984,263.5Z" transform="translate(74.24 34.351)" fill="#eaeaea"/>
      <path id="Path_202" data-name="Path 202" d="M1216.9,263.5a2.059,2.059,0,1,0,2.059,2.059A2.061,2.061,0,0,0,1216.9,263.5Z" transform="translate(80.995 34.351)" fill="#eaeaea"/>
      <path id="Path_203" data-name="Path 203" d="M1219.807,263.5a2.059,2.059,0,1,0,2.059,2.059A2.058,2.058,0,0,0,1219.807,263.5Z" transform="translate(87.753 34.351)" fill="#eaeaea"/>
      <path id="Path_204" data-name="Path 204" d="M1220.659,265.56a2.061,2.061,0,0,0,2.059,2.059,2.023,2.023,0,0,0,1.584-.79q-.453-1.619-.976-3.2a1.978,1.978,0,0,0-2.667,1.936Z" transform="translate(94.509 34.351)" fill="#eaeaea"/>
      <path id="Path_205" data-name="Path 205" d="M1205.249,266.608a2.059,2.059,0,1,0,2.059,2.059A2.059,2.059,0,0,0,1205.249,266.608Z" transform="translate(53.968 41.562)" fill="#eaeaea"/>
      <path id="Path_206" data-name="Path 206" d="M1208.161,266.608a2.059,2.059,0,1,0,2.059,2.059A2.056,2.056,0,0,0,1208.161,266.608Z" transform="translate(60.726 41.562)" fill="#eaeaea"/>
      <path id="Path_207" data-name="Path 207" d="M1211.072,266.608a2.059,2.059,0,1,0,2.059,2.059A2.059,2.059,0,0,0,1211.072,266.608Z" transform="translate(67.481 41.562)" fill="#eaeaea"/>
      <path id="Path_208" data-name="Path 208" d="M1213.984,266.608a2.059,2.059,0,1,0,2.059,2.059A2.056,2.056,0,0,0,1213.984,266.608Z" transform="translate(74.24 41.562)" fill="#eaeaea"/>
      <path id="Path_209" data-name="Path 209" d="M1216.9,266.608a2.059,2.059,0,1,0,2.059,2.059A2.058,2.058,0,0,0,1216.9,266.608Z" transform="translate(80.995 41.562)" fill="#eaeaea"/>
      <path id="Path_210" data-name="Path 210" d="M1219.807,266.608a2.059,2.059,0,1,0,2.059,2.059A2.056,2.056,0,0,0,1219.807,266.608Z" transform="translate(87.753 41.562)" fill="#eaeaea"/>
      <path id="Path_211" data-name="Path 211" d="M1222.718,266.608a2.059,2.059,0,1,0,2.059,2.059A2.058,2.058,0,0,0,1222.718,266.608Z" transform="translate(94.509 41.562)" fill="#eaeaea"/>
      <path id="Path_212" data-name="Path 212" d="M1205.249,269.715a2.057,2.057,0,1,0,2.059,2.059A2.059,2.059,0,0,0,1205.249,269.715Z" transform="translate(53.968 48.772)" fill="#eaeaea"/>
      <path id="Path_213" data-name="Path 213" d="M1208.161,269.715a2.057,2.057,0,1,0,2.059,2.059A2.056,2.056,0,0,0,1208.161,269.715Z" transform="translate(60.726 48.772)" fill="#eaeaea"/>
      <path id="Path_214" data-name="Path 214" d="M1211.072,269.715a2.057,2.057,0,1,0,2.059,2.059A2.059,2.059,0,0,0,1211.072,269.715Z" transform="translate(67.481 48.772)" fill="#eaeaea"/>
      <path id="Path_215" data-name="Path 215" d="M1213.984,269.715a2.057,2.057,0,1,0,2.059,2.059A2.056,2.056,0,0,0,1213.984,269.715Z" transform="translate(74.24 48.772)" fill="#eaeaea"/>
      <path id="Path_216" data-name="Path 216" d="M1216.9,269.715a2.057,2.057,0,1,0,2.059,2.059A2.058,2.058,0,0,0,1216.9,269.715Z" transform="translate(80.995 48.772)" fill="#eaeaea"/>
      <path id="Path_217" data-name="Path 217" d="M1219.807,269.715a2.057,2.057,0,1,0,2.059,2.059A2.056,2.056,0,0,0,1219.807,269.715Z" transform="translate(87.753 48.772)" fill="#eaeaea"/>
      <path id="Path_218" data-name="Path 218" d="M1222.718,269.715a2.057,2.057,0,1,0,2.059,2.059A2.058,2.058,0,0,0,1222.718,269.715Z" transform="translate(94.509 48.772)" fill="#eaeaea"/>
      <path id="Path_219" data-name="Path 219" d="M1181.994,272.833a2.059,2.059,0,1,0,2.059,2.059A2.058,2.058,0,0,0,1181.994,272.833Z" transform="translate(0 56.008)" fill="#eaeaea"/>
      <path id="Path_220" data-name="Path 220" d="M1184.905,272.833a2.059,2.059,0,1,0,2.059,2.059A2.061,2.061,0,0,0,1184.905,272.833Z" transform="translate(6.755 56.008)" fill="#eaeaea"/>
      <path id="Path_221" data-name="Path 221" d="M1187.817,272.833a2.059,2.059,0,1,0,2.059,2.059A2.058,2.058,0,0,0,1187.817,272.833Z" transform="translate(13.513 56.008)" fill="#eaeaea"/>
      <path id="Path_222" data-name="Path 222" d="M1190.728,272.833a2.059,2.059,0,1,0,2.059,2.059A2.061,2.061,0,0,0,1190.728,272.833Z" transform="translate(20.269 56.008)" fill="#eaeaea"/>
      <path id="Path_223" data-name="Path 223" d="M1193.64,272.833a2.059,2.059,0,1,0,2.059,2.059A2.058,2.058,0,0,0,1193.64,272.833Z" transform="translate(27.027 56.008)" fill="#eaeaea"/>
      <path id="Path_224" data-name="Path 224" d="M1196.552,272.833a2.059,2.059,0,1,0,2.059,2.059A2.061,2.061,0,0,0,1196.552,272.833Z" transform="translate(33.782 56.008)" fill="#eaeaea"/>
      <path id="Path_225" data-name="Path 225" d="M1199.463,272.833a2.059,2.059,0,1,0,2.059,2.059A2.058,2.058,0,0,0,1199.463,272.833Z" transform="translate(40.54 56.008)" fill="#eaeaea"/>
      <path id="Path_226" data-name="Path 226" d="M1202.374,272.833a2.059,2.059,0,1,0,2.059,2.059A2.061,2.061,0,0,0,1202.374,272.833Z" transform="translate(47.296 56.008)" fill="#eaeaea"/>
      <path id="Path_227" data-name="Path 227" d="M1183.721,278a2.061,2.061,0,0,0-2.059-2.059,2.024,2.024,0,0,0-1.584.79q.453,1.619.976,3.2a1.966,1.966,0,0,0,.608.123A2.061,2.061,0,0,0,1183.721,278Z" transform="translate(0.332 63.219)" fill="#eaeaea"/>
      <path id="Path_228" data-name="Path 228" d="M1184.905,275.94a2.059,2.059,0,1,0,2.059,2.059A2.061,2.061,0,0,0,1184.905,275.94Z" transform="translate(6.755 63.219)" fill="#eaeaea"/>
      <path id="Path_229" data-name="Path 229" d="M1187.817,275.94a2.059,2.059,0,1,0,2.059,2.059A2.058,2.058,0,0,0,1187.817,275.94Z" transform="translate(13.513 63.219)" fill="#eaeaea"/>
      <path id="Path_230" data-name="Path 230" d="M1190.728,275.94a2.059,2.059,0,1,0,2.059,2.059A2.061,2.061,0,0,0,1190.728,275.94Z" transform="translate(20.269 63.219)" fill="#eaeaea"/>
      <path id="Path_231" data-name="Path 231" d="M1193.64,275.94A2.059,2.059,0,1,0,1195.7,278,2.058,2.058,0,0,0,1193.64,275.94Z" transform="translate(27.027 63.219)" fill="#eaeaea"/>
      <path id="Path_232" data-name="Path 232" d="M1196.552,275.94A2.059,2.059,0,1,0,1198.61,278,2.061,2.061,0,0,0,1196.552,275.94Z" transform="translate(33.782 63.219)" fill="#eaeaea"/>
      <path id="Path_233" data-name="Path 233" d="M1199.463,275.94a2.059,2.059,0,1,0,2.059,2.059A2.058,2.058,0,0,0,1199.463,275.94Z" transform="translate(40.54 63.219)" fill="#eaeaea"/>
      <path id="Path_234" data-name="Path 234" d="M1202.374,275.94a2.059,2.059,0,1,0,2.059,2.059A2.061,2.061,0,0,0,1202.374,275.94Z" transform="translate(47.296 63.219)" fill="#eaeaea"/>
      <path id="Path_235" data-name="Path 235" d="M1184.905,279.047a2.059,2.059,0,1,0,2.059,2.059A2.059,2.059,0,0,0,1184.905,279.047Z" transform="translate(6.755 70.429)" fill="#eaeaea"/>
      <path id="Path_236" data-name="Path 236" d="M1187.817,279.047a2.059,2.059,0,1,0,2.059,2.059A2.056,2.056,0,0,0,1187.817,279.047Z" transform="translate(13.513 70.429)" fill="#eaeaea"/>
      <path id="Path_237" data-name="Path 237" d="M1190.728,279.047a2.059,2.059,0,1,0,2.059,2.059A2.059,2.059,0,0,0,1190.728,279.047Z" transform="translate(20.269 70.429)" fill="#eaeaea"/>
      <path id="Path_238" data-name="Path 238" d="M1193.64,279.047a2.059,2.059,0,1,0,2.059,2.059A2.056,2.056,0,0,0,1193.64,279.047Z" transform="translate(27.027 70.429)" fill="#eaeaea"/>
      <path id="Path_239" data-name="Path 239" d="M1196.552,279.047a2.059,2.059,0,1,0,2.059,2.059A2.059,2.059,0,0,0,1196.552,279.047Z" transform="translate(33.782 70.429)" fill="#eaeaea"/>
      <path id="Path_240" data-name="Path 240" d="M1199.463,279.047a2.059,2.059,0,1,0,2.059,2.059A2.056,2.056,0,0,0,1199.463,279.047Z" transform="translate(40.54 70.429)" fill="#eaeaea"/>
      <path id="Path_241" data-name="Path 241" d="M1202.374,279.047a2.059,2.059,0,1,0,2.059,2.059A2.059,2.059,0,0,0,1202.374,279.047Z" transform="translate(47.296 70.429)" fill="#eaeaea"/>
      <path id="Path_242" data-name="Path 242" d="M1186.69,284.21a2.056,2.056,0,0,0-2.059-2.056,2.021,2.021,0,0,0-1.667.917c.71,1.049,1.451,2.079,2.211,3.088A2.029,2.029,0,0,0,1186.69,284.21Z" transform="translate(7.029 77.64)" fill="#eaeaea"/>
      <path id="Path_243" data-name="Path 243" d="M1187.817,282.154a2.057,2.057,0,1,0,2.059,2.056A2.056,2.056,0,0,0,1187.817,282.154Z" transform="translate(13.513 77.64)" fill="#eaeaea"/>
      <path id="Path_244" data-name="Path 244" d="M1190.728,282.154a2.057,2.057,0,1,0,2.059,2.056A2.058,2.058,0,0,0,1190.728,282.154Z" transform="translate(20.269 77.64)" fill="#eaeaea"/>
      <path id="Path_245" data-name="Path 245" d="M1193.64,282.154a2.057,2.057,0,1,0,2.059,2.056A2.056,2.056,0,0,0,1193.64,282.154Z" transform="translate(27.027 77.64)" fill="#eaeaea"/>
      <path id="Path_246" data-name="Path 246" d="M1196.552,282.154a2.057,2.057,0,1,0,2.059,2.056A2.058,2.058,0,0,0,1196.552,282.154Z" transform="translate(33.782 77.64)" fill="#eaeaea"/>
      <path id="Path_247" data-name="Path 247" d="M1199.463,282.154a2.057,2.057,0,1,0,2.059,2.056A2.056,2.056,0,0,0,1199.463,282.154Z" transform="translate(40.54 77.64)" fill="#eaeaea"/>
      <path id="Path_248" data-name="Path 248" d="M1202.374,282.154a2.057,2.057,0,1,0,2.059,2.056A2.058,2.058,0,0,0,1202.374,282.154Z" transform="translate(47.296 77.64)" fill="#eaeaea"/>
      <path id="Path_249" data-name="Path 249" d="M1189.836,287.319a2.061,2.061,0,0,0-2.059-2.059,2.034,2.034,0,0,0-2,1.783q1.176,1.156,2.4,2.255A2.032,2.032,0,0,0,1189.836,287.319Z" transform="translate(13.553 84.848)" fill="#eaeaea"/>
      <path id="Path_250" data-name="Path 250" d="M1190.728,285.26a2.059,2.059,0,1,0,2.059,2.059A2.061,2.061,0,0,0,1190.728,285.26Z" transform="translate(20.269 84.848)" fill="#eaeaea"/>
      <path id="Path_251" data-name="Path 251" d="M1193.64,285.26a2.059,2.059,0,1,0,2.059,2.059A2.058,2.058,0,0,0,1193.64,285.26Z" transform="translate(27.027 84.848)" fill="#eaeaea"/>
      <path id="Path_252" data-name="Path 252" d="M1196.552,285.26a2.059,2.059,0,1,0,2.059,2.059A2.061,2.061,0,0,0,1196.552,285.26Z" transform="translate(33.782 84.848)" fill="#eaeaea"/>
      <path id="Path_253" data-name="Path 253" d="M1199.463,285.26a2.059,2.059,0,1,0,2.059,2.059A2.058,2.058,0,0,0,1199.463,285.26Z" transform="translate(40.54 84.848)" fill="#eaeaea"/>
      <path id="Path_254" data-name="Path 254" d="M1202.374,285.26a2.059,2.059,0,1,0,2.059,2.059A2.061,2.061,0,0,0,1202.374,285.26Z" transform="translate(47.296 84.848)" fill="#eaeaea"/>
      <path id="Path_255" data-name="Path 255" d="M1189.88,288.367a2.067,2.067,0,0,0-.846.193q1.424.942,2.9,1.813A2.052,2.052,0,0,0,1189.88,288.367Z" transform="translate(21.116 92.058)" fill="#eaeaea"/>
      <path id="Path_256" data-name="Path 256" d="M1193.64,288.367a2.059,2.059,0,1,0,2.059,2.059A2.058,2.058,0,0,0,1193.64,288.367Z" transform="translate(27.027 92.058)" fill="#eaeaea"/>
      <path id="Path_257" data-name="Path 257" d="M1196.552,288.367a2.059,2.059,0,1,0,2.059,2.059A2.061,2.061,0,0,0,1196.552,288.367Z" transform="translate(33.782 92.058)" fill="#eaeaea"/>
      <path id="Path_258" data-name="Path 258" d="M1199.463,288.367a2.059,2.059,0,1,0,2.059,2.059A2.058,2.058,0,0,0,1199.463,288.367Z" transform="translate(40.54 92.058)" fill="#eaeaea"/>
      <path id="Path_259" data-name="Path 259" d="M1202.374,288.367a2.059,2.059,0,1,0,2.059,2.059A2.061,2.061,0,0,0,1202.374,288.367Z" transform="translate(47.296 92.058)" fill="#eaeaea"/>
      <path id="Path_260" data-name="Path 260" d="M1199.143,291.474a2.023,2.023,0,0,0-1.6.814c1.159.183,2.324.332,3.5.458A2.054,2.054,0,0,0,1199.143,291.474Z" transform="translate(40.861 99.269)" fill="#eaeaea"/>
      <path id="Path_261" data-name="Path 261" d="M1202.314,291.474a2.03,2.03,0,0,0-1.973,1.64c.638.017,1.272.047,1.913.047.681,0,1.358-.03,2.036-.05A2.034,2.034,0,0,0,1202.314,291.474Z" transform="translate(47.356 99.269)" fill="#eaeaea"/>
      <path id="Path_262" data-name="Path 262" d="M1205.249,272.833a2.059,2.059,0,1,0,2.059,2.059A2.061,2.061,0,0,0,1205.249,272.833Z" transform="translate(53.968 56.008)" fill="#eaeaea"/>
      <path id="Path_263" data-name="Path 263" d="M1208.161,272.833a2.059,2.059,0,1,0,2.059,2.059A2.058,2.058,0,0,0,1208.161,272.833Z" transform="translate(60.726 56.008)" fill="#eaeaea"/>
      <path id="Path_264" data-name="Path 264" d="M1211.072,272.833a2.059,2.059,0,1,0,2.059,2.059A2.061,2.061,0,0,0,1211.072,272.833Z" transform="translate(67.481 56.008)" fill="#eaeaea"/>
      <path id="Path_265" data-name="Path 265" d="M1213.984,272.833a2.059,2.059,0,1,0,2.059,2.059A2.058,2.058,0,0,0,1213.984,272.833Z" transform="translate(74.24 56.008)" fill="#eaeaea"/>
      <path id="Path_266" data-name="Path 266" d="M1216.9,272.833a2.059,2.059,0,1,0,2.059,2.059A2.061,2.061,0,0,0,1216.9,272.833Z" transform="translate(80.995 56.008)" fill="#eaeaea"/>
      <path id="Path_267" data-name="Path 267" d="M1219.807,272.833a2.059,2.059,0,1,0,2.059,2.059A2.058,2.058,0,0,0,1219.807,272.833Z" transform="translate(87.753 56.008)" fill="#eaeaea"/>
      <path id="Path_268" data-name="Path 268" d="M1222.718,272.833a2.059,2.059,0,1,0,2.059,2.059A2.061,2.061,0,0,0,1222.718,272.833Z" transform="translate(94.509 56.008)" fill="#eaeaea"/>
      <path id="Path_269" data-name="Path 269" d="M1205.249,275.94a2.059,2.059,0,1,0,2.059,2.059A2.061,2.061,0,0,0,1205.249,275.94Z" transform="translate(53.968 63.219)" fill="#eaeaea"/>
      <path id="Path_270" data-name="Path 270" d="M1208.161,275.94A2.059,2.059,0,1,0,1210.22,278,2.058,2.058,0,0,0,1208.161,275.94Z" transform="translate(60.726 63.219)" fill="#eaeaea"/>
      <path id="Path_271" data-name="Path 271" d="M1211.072,275.94a2.059,2.059,0,1,0,2.059,2.059A2.061,2.061,0,0,0,1211.072,275.94Z" transform="translate(67.481 63.219)" fill="#eaeaea"/>
      <path id="Path_272" data-name="Path 272" d="M1213.984,275.94a2.059,2.059,0,1,0,2.059,2.059A2.058,2.058,0,0,0,1213.984,275.94Z" transform="translate(74.24 63.219)" fill="#eaeaea"/>
      <path id="Path_273" data-name="Path 273" d="M1216.9,275.94a2.059,2.059,0,1,0,2.059,2.059A2.061,2.061,0,0,0,1216.9,275.94Z" transform="translate(80.995 63.219)" fill="#eaeaea"/>
      <path id="Path_274" data-name="Path 274" d="M1219.807,275.94a2.059,2.059,0,1,0,2.059,2.059A2.058,2.058,0,0,0,1219.807,275.94Z" transform="translate(87.753 63.219)" fill="#eaeaea"/>
      <path id="Path_275" data-name="Path 275" d="M1222.718,275.94a2.061,2.061,0,1,0,.608,3.995q.523-1.584.976-3.2A2.023,2.023,0,0,0,1222.718,275.94Z" transform="translate(94.509 63.219)" fill="#eaeaea"/>
      <path id="Path_276" data-name="Path 276" d="M1205.249,279.047a2.059,2.059,0,1,0,2.059,2.059A2.059,2.059,0,0,0,1205.249,279.047Z" transform="translate(53.968 70.429)" fill="#eaeaea"/>
      <path id="Path_277" data-name="Path 277" d="M1208.161,279.047a2.059,2.059,0,1,0,2.059,2.059A2.056,2.056,0,0,0,1208.161,279.047Z" transform="translate(60.726 70.429)" fill="#eaeaea"/>
      <path id="Path_278" data-name="Path 278" d="M1211.072,279.047a2.059,2.059,0,1,0,2.059,2.059A2.059,2.059,0,0,0,1211.072,279.047Z" transform="translate(67.481 70.429)" fill="#eaeaea"/>
      <path id="Path_279" data-name="Path 279" d="M1213.984,279.047a2.059,2.059,0,1,0,2.059,2.059A2.056,2.056,0,0,0,1213.984,279.047Z" transform="translate(74.24 70.429)" fill="#eaeaea"/>
      <path id="Path_280" data-name="Path 280" d="M1216.9,279.047a2.059,2.059,0,1,0,2.059,2.059A2.058,2.058,0,0,0,1216.9,279.047Z" transform="translate(80.995 70.429)" fill="#eaeaea"/>
      <path id="Path_281" data-name="Path 281" d="M1219.807,279.047a2.059,2.059,0,1,0,2.059,2.059A2.056,2.056,0,0,0,1219.807,279.047Z" transform="translate(87.753 70.429)" fill="#eaeaea"/>
      <path id="Path_282" data-name="Path 282" d="M1205.249,282.154a2.057,2.057,0,1,0,2.059,2.056A2.058,2.058,0,0,0,1205.249,282.154Z" transform="translate(53.968 77.64)" fill="#eaeaea"/>
      <path id="Path_283" data-name="Path 283" d="M1208.161,282.154a2.057,2.057,0,1,0,2.059,2.056A2.056,2.056,0,0,0,1208.161,282.154Z" transform="translate(60.726 77.64)" fill="#eaeaea"/>
      <path id="Path_284" data-name="Path 284" d="M1211.072,282.154a2.057,2.057,0,1,0,2.059,2.056A2.058,2.058,0,0,0,1211.072,282.154Z" transform="translate(67.481 77.64)" fill="#eaeaea"/>
      <path id="Path_285" data-name="Path 285" d="M1213.984,282.154a2.057,2.057,0,1,0,2.059,2.056A2.056,2.056,0,0,0,1213.984,282.154Z" transform="translate(74.24 77.64)" fill="#eaeaea"/>
      <path id="Path_286" data-name="Path 286" d="M1216.9,282.154a2.057,2.057,0,1,0,2.059,2.056A2.058,2.058,0,0,0,1216.9,282.154Z" transform="translate(80.995 77.64)" fill="#eaeaea"/>
      <path id="Path_287" data-name="Path 287" d="M1219.807,282.154a2.056,2.056,0,0,0-2.059,2.056,2.029,2.029,0,0,0,1.511,1.949q1.146-1.514,2.215-3.088A2.02,2.02,0,0,0,1219.807,282.154Z" transform="translate(87.753 77.64)" fill="#eaeaea"/>
      <path id="Path_288" data-name="Path 288" d="M1205.249,285.26a2.059,2.059,0,1,0,2.059,2.059A2.061,2.061,0,0,0,1205.249,285.26Z" transform="translate(53.968 84.848)" fill="#eaeaea"/>
      <path id="Path_289" data-name="Path 289" d="M1208.161,285.26a2.059,2.059,0,1,0,2.059,2.059A2.058,2.058,0,0,0,1208.161,285.26Z" transform="translate(60.726 84.848)" fill="#eaeaea"/>
      <path id="Path_290" data-name="Path 290" d="M1211.072,285.26a2.059,2.059,0,1,0,2.059,2.059A2.061,2.061,0,0,0,1211.072,285.26Z" transform="translate(67.481 84.848)" fill="#eaeaea"/>
      <path id="Path_291" data-name="Path 291" d="M1213.984,285.26a2.059,2.059,0,1,0,2.059,2.059A2.058,2.058,0,0,0,1213.984,285.26Z" transform="translate(74.24 84.848)" fill="#eaeaea"/>
      <path id="Path_292" data-name="Path 292" d="M1216.9,285.26a2.061,2.061,0,0,0-2.059,2.059,2.031,2.031,0,0,0,1.657,1.979q1.23-1.1,2.4-2.255A2.034,2.034,0,0,0,1216.9,285.26Z" transform="translate(80.995 84.848)" fill="#eaeaea"/>
      <path id="Path_293" data-name="Path 293" d="M1205.249,288.367a2.059,2.059,0,1,0,2.059,2.059A2.061,2.061,0,0,0,1205.249,288.367Z" transform="translate(53.968 92.058)" fill="#eaeaea"/>
      <path id="Path_294" data-name="Path 294" d="M1208.161,288.367a2.059,2.059,0,1,0,2.059,2.059A2.058,2.058,0,0,0,1208.161,288.367Z" transform="translate(60.726 92.058)" fill="#eaeaea"/>
      <path id="Path_295" data-name="Path 295" d="M1211.072,288.367a2.059,2.059,0,1,0,2.059,2.059A2.061,2.061,0,0,0,1211.072,288.367Z" transform="translate(67.481 92.058)" fill="#eaeaea"/>
      <path id="Path_296" data-name="Path 296" d="M1211.928,290.373q1.47-.872,2.9-1.813a2.032,2.032,0,0,0-2.9,1.813Z" transform="translate(74.247 92.058)" fill="#eaeaea"/>
      <path id="Path_297" data-name="Path 297" d="M1205.138,291.474a2.055,2.055,0,0,0-1.9,1.272c1.176-.126,2.341-.276,3.5-.458A2.013,2.013,0,0,0,1205.138,291.474Z" transform="translate(54.08 99.269)" fill="#eaeaea"/>
    </g>
  </g>
</svg>
