<svg xmlns="http://www.w3.org/2000/svg" xmlns:xlink="http://www.w3.org/1999/xlink" width="49" height="47" viewBox="0 0 49 47">
  <defs>
    <clipPath id="clip-Fb_1">
      <rect width="49" height="47"/>
    </clipPath>
  </defs>
  <g id="Fb_1" data-name="Fb – 1" clip-path="url(#clip-Fb_1)">
    <g id="Group_4133" data-name="Group 4133" transform="translate(-163 -13985)">
      <rect id="Rectangle_276" data-name="Rectangle 276" width="45" height="43" rx="6" transform="translate(165 13987)" fill="#e8e8e8"/>
      <g id="facebook-logo" transform="translate(177 13998)">
        <g id="post-facebook" transform="translate(0 0)">
          <path id="Path_1340" data-name="Path 1340" d="M19.8,0H2.2A2.206,2.206,0,0,0,0,2.2V19.8A2.206,2.206,0,0,0,2.2,22H19.8A2.206,2.206,0,0,0,22,19.8V2.2A2.206,2.206,0,0,0,19.8,0ZM18.7,2.2V5.5H16.5a1.039,1.039,0,0,0-1.1,1.1V8.8h3.3v3.3H15.4v7.7H12.1V12.1H9.9V8.8h2.2V6.05A3.9,3.9,0,0,1,15.95,2.2Z" transform="translate(0 0)" fill="#434343"/>
        </g>
      </g>
    </g>
  </g>
</svg>
