<svg xmlns="http://www.w3.org/2000/svg" xmlns:xlink="http://www.w3.org/1999/xlink" width="49" height="47" viewBox="0 0 49 47">
  <defs>
    <clipPath id="clip-Link">
      <rect width="49" height="47"/>
    </clipPath>
  </defs>
  <g id="Link" clip-path="url(#clip-Link)">
    <rect id="Rectangle_276" data-name="Rectangle 276" width="45" height="42" rx="6" transform="translate(2 3)" fill="#e8e8e8"/>
    <g id="linkedin-logo" transform="translate(4 11)">
      <g id="post-linkedin" transform="translate(10 2)">
        <path id="Path_1342" data-name="Path 1342" d="M19.8,0H2.2A2.206,2.206,0,0,0,0,2.2V19.8A2.206,2.206,0,0,0,2.2,22H19.8A2.206,2.206,0,0,0,22,19.8V2.2A2.206,2.206,0,0,0,19.8,0ZM6.6,18.7H3.3V8.8H6.6ZM4.95,6.93A1.98,1.98,0,1,1,6.93,4.95,1.972,1.972,0,0,1,4.95,6.93ZM18.7,18.7H15.4V12.87a1.65,1.65,0,0,0-3.3,0V18.7H8.8V8.8h3.3v1.32a3.553,3.553,0,0,1,2.75-1.54,3.9,3.9,0,0,1,3.85,3.85Z" transform="translate(0 0)" fill="#434343"/>
      </g>
    </g>
  </g>
</svg>
