<svg xmlns="http://www.w3.org/2000/svg" xmlns:xlink="http://www.w3.org/1999/xlink" width="49" height="47" viewBox="0 0 49 47">
  <defs>
    <clipPath id="clip-Tik">
      <rect width="49" height="47"/>
    </clipPath>
  </defs>
  <g id="Tik" clip-path="url(#clip-Tik)">
    <rect id="Rectangle_277" data-name="Rectangle 277" width="45" height="42" rx="6" transform="translate(2 3)" fill="#e8e8e8"/>
    <path id="Icon_simple-tiktok" data-name="Icon simple-tiktok" d="M12.942.019C14.207,0,15.462.01,16.717,0a6.014,6.014,0,0,0,1.69,4.026A6.809,6.809,0,0,0,22.5,5.755V9.646a10.335,10.335,0,0,1-4.055-.937,11.929,11.929,0,0,1-1.564-.9c-.01,2.819.01,5.639-.019,8.448a7.375,7.375,0,0,1-1.3,3.8,7.193,7.193,0,0,1-5.706,3.1,7.04,7.04,0,0,1-3.939-.994,7.281,7.281,0,0,1-3.524-5.513c-.019-.483-.029-.966-.01-1.439a7.269,7.269,0,0,1,8.429-6.45c.019,1.429-.039,2.858-.039,4.287A3.313,3.313,0,0,0,6.541,15.1a3.83,3.83,0,0,0-.135,1.555,3.286,3.286,0,0,0,3.379,2.771,3.244,3.244,0,0,0,2.675-1.555,2.228,2.228,0,0,0,.4-1.023c.1-1.728.058-3.447.068-5.175.01-3.891-.01-7.773.019-11.654Z" transform="translate(11.633 12)" fill="#434343"/>
  </g>
</svg>
