<svg xmlns="http://www.w3.org/2000/svg" xmlns:xlink="http://www.w3.org/1999/xlink" width="49" height="47" viewBox="0 0 49 47">
  <defs>
    <clipPath id="clip-Two">
      <rect width="49" height="47"/>
    </clipPath>
  </defs>
  <g id="Two" clip-path="url(#clip-Two)">
    <g id="Group_4134" data-name="Group 4134" transform="translate(-217 -13984)">
      <rect id="Rectangle_276" data-name="Rectangle 276" width="45" height="42" rx="6" transform="translate(219 13987)" fill="#e8e8e8"/>
      <g id="twitter-logo-on-black-background" transform="translate(231 13997)">
        <g id="post-twitter" transform="translate(0 0)">
          <path id="Path_1341" data-name="Path 1341" d="M19.8,0H2.2A2.206,2.206,0,0,0,0,2.2V19.8A2.206,2.206,0,0,0,2.2,22H19.8A2.206,2.206,0,0,0,22,19.8V2.2A2.206,2.206,0,0,0,19.8,0ZM17.27,8.03c-.11,5.06-3.3,8.58-8.14,8.8A8.007,8.007,0,0,1,4.4,15.51,5.84,5.84,0,0,0,8.69,14.3a2.971,2.971,0,0,1-2.75-2.09,4.437,4.437,0,0,0,1.21,0A3,3,0,0,1,4.84,9.24a2.217,2.217,0,0,0,1.21.33,3.253,3.253,0,0,1-.88-3.96,8.717,8.717,0,0,0,6.05,3.08c-.77-3.08,3.41-4.73,5.06-2.64a7.41,7.41,0,0,0,1.87-.66,3.11,3.11,0,0,1-1.21,1.65,6.306,6.306,0,0,0,1.54-.44C18.37,7.15,17.82,7.59,17.27,8.03Z" transform="translate(0 0)" fill="#434343"/>
        </g>
      </g>
    </g>
  </g>
</svg>
