<svg xmlns="http://www.w3.org/2000/svg" xmlns:xlink="http://www.w3.org/1999/xlink" width="49" height="47" viewBox="0 0 49 47">
  <defs>
    <clipPath id="clip-You">
      <rect width="49" height="47"/>
    </clipPath>
  </defs>
  <g id="You" clip-path="url(#clip-You)">
    <rect id="Rectangle_276" data-name="Rectangle 276" width="45" height="42" rx="6" transform="translate(2 3)" fill="#e8e8e8"/>
    <g id="video-youtube" transform="translate(12 14)">
      <path id="Path_1339" data-name="Path 1339" d="M22.5,51.5a69.2,69.2,0,0,0-10-.5,69.2,69.2,0,0,0-10,.5C.5,52.125,0,56.5,0,61s.5,8.875,2.5,9.5a69.2,69.2,0,0,0,10,.5,69.2,69.2,0,0,0,10-.5c2-.625,2.5-5,2.5-9.5S24.5,52.125,22.5,51.5ZM10,66.625V55.375L17.5,61Z" transform="translate(0 -51)" fill="#434343"/>
    </g>
  </g>
</svg>
